<svg version="1.1" id="Layer_1" xmlns="http://www.w3.org/2000/svg" xmlns:xlink="http://www.w3.org/1999/xlink" x="0px" y="0px"
	 width="100%" viewBox="0 0 342 356" enable-background="new 0 0 342 356" xml:space="preserve">
<path fill="#000000" opacity="1.000000" stroke="none" 
	d="
M160.000000,357.000000 
	C108.000008,357.000000 56.499901,356.956818 5.000294,357.097473 
	C1.575110,357.106812 0.901362,356.423950 0.904747,352.999939 
	C1.019420,237.000061 1.019410,121.000046 0.904765,5.000185 
	C0.901381,1.576436 1.575829,0.901106 5.000006,0.904661 
	C116.333199,1.020229 227.666550,1.020219 338.999756,0.904695 
	C342.423401,0.901142 343.098663,1.575676 343.095276,4.999940 
	C342.980591,120.999802 342.980560,236.999817 343.095215,352.999695 
	C343.098572,356.423157 342.425323,357.104706 339.000000,357.096985 
	C279.500244,356.962463 220.000076,357.000000 160.000000,357.000000 
z"/>
<path fill="#FFFFFF" opacity="1.000000" stroke="none" 
	d="
M109.000000,92.999550 
	C159.996826,92.999550 210.493835,93.056412 260.990143,92.894173 
	C265.137238,92.880859 266.117188,93.840874 266.106018,98.001877 
	C265.950134,155.997818 265.950684,213.994446 266.105225,271.990387 
	C266.116272,276.137360 265.158661,277.116974 260.997986,277.105957 
	C202.335419,276.950714 143.672165,276.951263 85.009583,277.105164 
	C80.862595,277.116058 79.882774,276.158569 79.893951,271.997925 
	C80.049812,214.001984 80.049286,156.005341 79.894737,98.009407 
	C79.883690,93.862061 80.819275,92.687080 85.007256,92.890518 
	C92.821503,93.270088 100.667320,92.999550 109.000000,92.999550 
z"/>
<path fill="#212222" opacity="1.000000" stroke="none" 
	d="
M125.334473,256.030762 
	C111.239388,253.277771 101.213989,241.879456 101.104713,227.985748 
	C100.889954,200.682632 100.875587,173.375259 101.104134,146.072372 
	C101.236702,130.235382 114.314194,117.225182 130.260941,117.092216 
	C158.229874,116.858986 186.203522,116.859749 214.172516,117.089684 
	C230.601364,117.224747 242.714615,132.601166 242.265549,145.612686 
	C241.318542,173.051407 241.975922,200.545532 241.977722,228.016937 
	C241.978668,242.468475 233.260712,253.068588 218.446060,256.139313 
	C216.850372,256.009827 215.645493,255.820099 214.234146,256.533752 
	C185.966003,256.759308 157.952789,256.822571 129.479950,256.796478 
	C128.017776,255.948044 126.849754,255.986420 125.334473,256.030762 
z"/>
<path fill="#2E3030" opacity="1.000000" stroke="none" 
	d="
M125.284088,256.226440 
	C126.284195,254.725327 127.576515,254.504349 128.939117,256.388824 
	C127.874565,256.606750 126.728813,256.506409 125.284088,256.226440 
z"/>
<path fill="#2E3030" opacity="1.000000" stroke="none" 
	d="
M214.323151,256.781036 
	C214.655701,254.506500 216.078583,254.814728 217.847763,255.869751 
	C216.923203,256.381134 215.795151,256.623566 214.323151,256.781036 
z"/>
<path fill="#33FDF3" opacity="1.000000" stroke="none" 
	d="
M135.740112,138.660889 
	C135.617554,136.669205 136.031540,135.694855 137.898056,135.768280 
	C152.325577,136.335754 166.898865,134.204834 181.162628,137.719437 
	C200.229477,142.417480 211.439926,156.210236 212.844223,176.373215 
	C213.285461,182.708633 213.003357,189.026688 211.619492,195.241653 
	C207.599228,213.296692 194.688629,225.060425 175.711227,227.919998 
	C163.298813,229.790359 150.786972,228.684479 138.323303,229.039215 
	C135.335800,229.124237 135.740326,227.270950 135.740143,225.466980 
	C135.739197,216.646713 135.739777,207.826447 135.739731,199.006180 
	C135.739624,179.035736 135.739441,159.065308 135.740112,138.660889 
z"/>
<path fill="#1F1E1E" opacity="1.000000" stroke="none" 
	d="
M187.006805,202.927277 
	C179.036255,213.058105 168.032227,212.739639 157.124832,212.633804 
	C155.138351,212.614532 155.449036,210.920532 155.448074,209.638367 
	C155.434341,191.474304 155.466873,173.310120 155.401535,155.146286 
	C155.393250,152.841980 155.998764,151.719055 158.497696,151.980774 
	C160.145981,152.153397 161.827118,152.008881 163.493546,152.012161 
	C182.944916,152.050400 191.567444,160.206818 192.398285,179.636719 
	C192.743759,187.716217 191.946075,195.641922 187.006805,202.927277 
z"/>
<path fill="#202525" opacity="1.000000" stroke="none" 
	d="
M157.395355,209.953339 
	C157.799408,209.208237 158.207489,209.204117 158.569214,209.730530 
	C158.645142,209.841034 158.643204,210.097794 158.564911,210.205765 
	C158.189957,210.722870 157.781860,210.705170 157.395355,209.953339 
z"/>
</svg>